<svg id="Layer_1" data-name="Layer 1" xmlns="http://www.w3.org/2000/svg" viewBox="0 0 80.812 80.771"><title>icons-premium-social</title><path d="M80.788,9.754V7.665a7.728,7.728,0,0,0-.062-.931V2.705A2.682,2.682,0,0,0,78.044.023H73.437C73.315.017,73.194,0,73.07,0H70.784c-.029,0-.058,0-.087,0H70.22V0H12.92V0H10.106c-.029,0-.057,0-.086,0H7.713c-.124,0-.246.013-.369.019H2.716A2.682,2.682,0,0,0,.034,2.705V6.99C.015,7.213,0,7.437,0,7.665V73.088c0,.229.015.454.034.678v4.245a2.682,2.682,0,0,0,2.682,2.682H6.663a7.9,7.9,0,0,0,1.05.078H73.07a7.808,7.808,0,0,0,1.044-.078h3.93a2.682,2.682,0,0,0,2.682-2.682V74.023a7.8,7.8,0,0,0,.062-.935V71.049c.005-.116.024-.228.024-.345V10.1C80.812,9.984,80.793,9.871,80.788,9.754Z" fill="#cf2026"/><path d="M42.041,80.76V51.8H32.386V39.213h9.655V32.885c0-9.751,7.222-17.364,16.417-17.364h8.9V29.747H59.387c-2.1,0-2.733,1.2-2.733,2.866v6.6h10.7V51.8h-10.7V80.769" fill="#fff"/></svg>