<svg id="Layer_1" data-name="Layer 1" xmlns="http://www.w3.org/2000/svg" viewBox="0 0 80.812 80.771"><title>icons-premium-social</title><path d="M80.788,9.754V7.665a7.728,7.728,0,0,0-.062-.931V2.705A2.682,2.682,0,0,0,78.044.023H73.437C73.315.017,73.194,0,73.07,0H70.784c-.029,0-.058,0-.087,0H70.22V0H12.92V0H10.106c-.029,0-.057,0-.086,0H7.713c-.124,0-.246.013-.369.019H2.716A2.682,2.682,0,0,0,.034,2.705V6.99C.015,7.213,0,7.437,0,7.665V73.088c0,.229.015.454.034.678v4.245a2.682,2.682,0,0,0,2.682,2.682H6.663a7.9,7.9,0,0,0,1.05.078H73.07a7.808,7.808,0,0,0,1.044-.078h3.93a2.682,2.682,0,0,0,2.682-2.682V74.023a7.8,7.8,0,0,0,.062-.935V71.049c.005-.116.024-.228.024-.345V10.1C80.812,9.984,80.793,9.871,80.788,9.754Z" fill="#cf2026"/><path d="M19.9,30.754h.053a5.588,5.588,0,0,0,5.767-5.864,5.571,5.571,0,0,0-5.706-5.868,5.6,5.6,0,0,0-5.785,5.868A5.566,5.566,0,0,0,19.9,30.754ZM14.829,34.4V69.141H26.364V34.4Z" fill="#fff"/><path d="M55.9,33.441a11.337,11.337,0,0,0-10.238,5.565v.184h-.127c.038-.058.087-.124.127-.184v-4.75H33.893c.149,3.159,0,34.885,0,34.885H45.665V50.217a8.7,8.7,0,0,1,.342-2.8,6.247,6.247,0,0,1,5.833-4.1c4.132,0,5.417,3.1,5.417,7.7V69.141H68.664V49.717C68.664,39.252,63.4,33.441,55.9,33.441Z" fill="#fff" fill-rule="evenodd"/></svg>