<svg id="Layer_1" data-name="Layer 1" xmlns="http://www.w3.org/2000/svg" viewBox="0 0 80.788 80.767"><title>icons-social</title><path d="M46.218,35.508v-.185c-.04.06-.088.126-.127.185ZM73.07,0H7.713A7.672,7.672,0,0,0,0,7.661V73.084a7.68,7.68,0,0,0,7.713,7.683H73.07a7.7,7.7,0,0,0,7.718-7.683V7.661A7.7,7.7,0,0,0,73.07,0Zm-52.5,15.339a5.571,5.571,0,0,1,5.706,5.868,5.589,5.589,0,0,1-5.768,5.864h-.052a5.566,5.566,0,0,1-5.672-5.864A5.6,5.6,0,0,1,20.572,15.339Zm6.345,50.119H15.383V30.713H26.917Zm42.3,0H57.81V47.336c0-4.6-1.284-7.7-5.417-7.7a6.25,6.25,0,0,0-5.833,4.1,8.731,8.731,0,0,0-.342,2.8V65.458H34.447s.149-31.725,0-34.885H46.218v4.75a11.34,11.34,0,0,1,10.238-5.565c7.5,0,12.762,5.811,12.762,16.276Z" fill="#fff" fill-rule="evenodd"/></svg>