<svg id="Layer_1" data-name="Layer 1" xmlns="http://www.w3.org/2000/svg" viewBox="0 0 80.812 80.771"><title>icons-premium-social</title><path d="M80.812,10.1V70.7c0,.117-.019.229-.024.345v2.039a7.8,7.8,0,0,1-.062.935v3.988a2.682,2.682,0,0,1-2.682,2.682h-3.93a7.808,7.808,0,0,1-1.044.078H7.713a7.9,7.9,0,0,1-1.05-.078H2.716A2.682,2.682,0,0,1,.034,78.011V73.766C.015,73.542,0,73.317,0,73.088V7.665c0-.228.015-.452.034-.675V2.705A2.682,2.682,0,0,1,2.716.023H7.344C7.467.017,7.589,0,7.713,0H10.02c.029,0,.057,0,.086,0H12.92V0h57.3V0H70.7c.029,0,.058,0,.087,0H73.07c.124,0,.245.013.367.019h4.607a2.682,2.682,0,0,1,2.682,2.682V6.734a7.728,7.728,0,0,1,.062.931V9.754C80.793,9.871,80.812,9.984,80.812,10.1Z" fill="#ce2028"/><path d="M45.258,29.669v2H60.183L40.041,43.24,20.9,31.669h14.28v-2H16.226V57.621h48.36V29.669Zm.36,12.675L62.586,32.6V54.348Zm-1.911,1.1L60.923,55.621h-40.8l16.4-12.167,3.488,2.108Zm-25.481,11.1V32.392l16.453,9.945Zm21.3-36.406V36.093h2V18.135l5.6,5.6,1.414-1.414-8.015-8.015-8.014,8.015,1.414,1.414Z" fill="#fff"/></svg>