<svg id="Layer_1" data-name="Layer 1" xmlns="http://www.w3.org/2000/svg" viewBox="0 0 80.812 80.771"><title>icons-premium-social</title><path d="M80.788,9.754V7.665a7.728,7.728,0,0,0-.062-.931V2.705A2.682,2.682,0,0,0,78.044.023H73.437C73.315.017,73.194,0,73.07,0H70.784c-.029,0-.058,0-.087,0H70.22V0H12.92V0H10.106c-.029,0-.057,0-.086,0H7.713c-.124,0-.246.013-.369.019H2.716A2.682,2.682,0,0,0,.034,2.705V6.99C.015,7.213,0,7.437,0,7.665V73.088c0,.229.015.454.034.678v4.245a2.682,2.682,0,0,0,2.682,2.682H6.663a7.9,7.9,0,0,0,1.05.078H73.07a7.808,7.808,0,0,0,1.044-.078h3.93a2.682,2.682,0,0,0,2.682-2.682V74.023a7.8,7.8,0,0,0,.062-.935V71.049c.005-.116.024-.228.024-.345V10.1C80.812,9.984,80.793,9.871,80.788,9.754Z" fill="#cf2026"/><path d="M58.286,31.875c.012.4.03.811.03,1.207,0,12.4-9.26,26.743-26.261,26.743A25.772,25.772,0,0,1,17.906,55.6a16.82,16.82,0,0,0,2.212.116,18.261,18.261,0,0,0,11.467-4.024,9.236,9.236,0,0,1-8.626-6.5,8.644,8.644,0,0,0,1.75.165,8.556,8.556,0,0,0,2.395-.333,9.363,9.363,0,0,1-7.379-9.22v-.1a9.323,9.323,0,0,0,4.185,1.188,9.47,9.47,0,0,1-4.133-7.842,8.965,8.965,0,0,1,1.29-4.7,25.948,25.948,0,0,0,19.01,9.79,8.256,8.256,0,0,1-.244-2.128,9.312,9.312,0,0,1,9.226-9.388,9.173,9.173,0,0,1,6.74,2.942A17.706,17.706,0,0,0,61.651,23.3a9.344,9.344,0,0,1-4.036,5.188,18.681,18.681,0,0,0,5.292-1.466A18.724,18.724,0,0,1,58.286,31.875Z" fill="#fff"/></svg>