<svg id="Layer_1" data-name="Layer 1" xmlns="http://www.w3.org/2000/svg" viewBox="0 0 80.789 80.77"><title>icons-social</title><path d="M67.29,0H13.49A13.5,13.5,0,0,0,0,13.49V67.3A13.5,13.5,0,0,0,13.49,80.77h53.8A13.488,13.488,0,0,0,80.789,67.3V13.49A13.489,13.489,0,0,0,67.29,0Zm-1.2,26.97c.018.579.044,1.166.044,1.736,0,17.828-13.315,38.452-37.76,38.452A37.057,37.057,0,0,1,8.029,61.075a24.1,24.1,0,0,0,3.181.167A26.259,26.259,0,0,0,27.7,55.457,13.279,13.279,0,0,1,15.3,46.1a12.981,12.981,0,0,0,5.96-.241,13.463,13.463,0,0,1-10.61-13.257v-.14a13.405,13.405,0,0,0,6.018,1.709A13.615,13.615,0,0,1,10.72,22.9a12.9,12.9,0,0,1,1.854-6.754A37.308,37.308,0,0,0,39.908,30.222a11.871,11.871,0,0,1-.351-3.059,13.389,13.389,0,0,1,13.266-13.5,13.189,13.189,0,0,1,9.69,4.229,25.49,25.49,0,0,0,8.415-3.256,13.441,13.441,0,0,1-5.8,7.459,26.879,26.879,0,0,0,7.608-2.108A26.908,26.908,0,0,1,66.089,26.97Z" fill="#fff"/></svg>