<svg id="Layer_1" data-name="Layer 1" xmlns="http://www.w3.org/2000/svg" viewBox="0 0 80.789 80.797"><title>icons-social</title><path d="M18.713,40.876H29.784v3.313h-3.8V64.406H22.456V44.189H18.713ZM36.2,60.282c-.71.986-1.385,1.468-2,1.468-.434,0-.67-.21-.732-.745a10.707,10.707,0,0,1-.026-1.227V46.88H30.23V60.743a9.1,9.1,0,0,0,.3,2.6,1.967,1.967,0,0,0,2.043,1.283c1.174,0,2.384-.692,3.629-2.121v1.9h3.169V46.88H36.2Zm4.48-31.419c1.026,0,1.505-.811,1.516-2.39V19.331c0-1.613-.495-2.441-1.529-2.441s-1.484.788-1.517,2.289v7.243C39.15,28.039,39.619,28.863,40.68,28.863ZM51.118,48.655a13.082,13.082,0,0,1,.311,3.515v6.977a13.574,13.574,0,0,1-.311,3.537A2.465,2.465,0,0,1,48.6,64.625,4.315,4.315,0,0,1,45.3,62.7v1.709H42.151V40.876H45.3v7.7a4.383,4.383,0,0,1,3.3-1.924A2.515,2.515,0,0,1,51.118,48.655ZM48.273,51.9c0-1.533-.459-2.366-1.393-2.366a2.356,2.356,0,0,0-1.578.762V60.988a2.19,2.19,0,0,0,1.578.762c.934,0,1.393-.762,1.393-2.357ZM80.789,13.472V67.325A13.505,13.505,0,0,1,67.29,80.8H13.49A13.52,13.52,0,0,1,0,67.325V13.472A13.519,13.519,0,0,1,13.49,0h53.8A13.5,13.5,0,0,1,80.789,13.472ZM47.7,28.2a9.435,9.435,0,0,0,.285,2.647,1.963,1.963,0,0,0,2.069,1.307c1.183,0,2.389-.7,3.655-2.174v1.972h3.23v-.421h0V13.814h-3.23v.4h0V27.4c-.712.96-1.356,1.467-2,1.467-.421,0-.688-.245-.758-.753a9.9,9.9,0,0,1-.031-1.263V13.814H47.713v.4H47.7ZM35.578,26.19a6.934,6.934,0,0,0,1,4.181,4.365,4.365,0,0,0,3.747,1.78,4.4,4.4,0,0,0,3.747-1.78,7.145,7.145,0,0,0,.981-4.181v-.236c0-.05.014-.082.014-.132v-6.2a7.062,7.062,0,0,0-.978-4.185A4.455,4.455,0,0,0,40.342,13.6,4.4,4.4,0,0,0,36.59,15.44a6.869,6.869,0,0,0-1,4.185v.244c0,.051-.013.082-.013.133ZM23.4,8.138h-.137c.753,2.205,1.529,4.457,2.287,6.618a60.035,60.035,0,0,1,2.174,7.538v9.655h3.541v-.421h.009V22.266L35.543,8.138h-.1l.112-.372h-3.58L29.53,17.122,27.023,7.766H23.267C23.309,7.89,23.353,8.015,23.4,8.138Zm43.929,44.9a58.308,58.308,0,0,0-.872-12.4,6.713,6.713,0,0,0-5.675-5.189,180.543,180.543,0,0,0-19.7-.719,179.722,179.722,0,0,0-19.7.719A6.692,6.692,0,0,0,15.7,40.635a57.477,57.477,0,0,0-.9,12.4,57.4,57.4,0,0,0,.9,12.434,6.732,6.732,0,0,0,5.684,5.184,179.586,179.586,0,0,0,19.687.719,180.6,180.6,0,0,0,19.708-.719,6.732,6.732,0,0,0,5.663-5.184A58.23,58.23,0,0,0,67.325,53.033Zm-4.9-4.566a6.677,6.677,0,0,1,1.022,4.142v3.637H57.078v3.085c0,1.626.531,2.419,1.622,2.419a1.362,1.362,0,0,0,1.428-1.257c.014-.2.053-.877.053-2.161h3.27v.473a19.733,19.733,0,0,1-.084,2.025,4.946,4.946,0,0,1-.723,1.928A4.429,4.429,0,0,1,58.8,64.625a4.662,4.662,0,0,1-3.866-1.744,7.046,7.046,0,0,1-.991-4.155V52.609a7.036,7.036,0,0,1,.938-4.142A4.569,4.569,0,0,1,58.7,46.652,4.3,4.3,0,0,1,62.429,48.467Zm-2.182,3.484c0-1.586-.517-2.419-1.582-2.419s-1.587.833-1.587,2.419v1.626h3.169Z" fill="#fff"/></svg>