<svg id="Layer_1" data-name="Layer 1" xmlns="http://www.w3.org/2000/svg" viewBox="0 0 112.92 120.34"><title>MOAA_KO</title><path d="M101.66,94.67H94.35L84.13,120h6.69l1.89-5.02h11.33l2.08,5.02h6.8Zm-7.28,15.89,3.72-9.84,4.08,9.84ZM23.67,72.97,11.18,65.28V0H23.67l7.49,7H23.67Zm41.67,21.7L55.12,120h6.69l1.89-5.02H75.03L77.11,120h6.8L72.65,94.67Zm.04,15.89,3.71-9.84,4.09,9.84ZM43.31,94.33c-9.54,0-14.52,6.87-14.52,13,0,6.47,5.24,13.01,14.52,13.01,9.1,0,14.49-6.51,14.49-13.01C57.8,101.24,52.86,94.33,43.31,94.33Zm0,20.73c-4.83,0-8.02-3.08-8.02-7.73s3.19-7.72,8.02-7.72c4.79,0,7.99,3.08,7.99,7.72S48.1,115.06,43.31,115.06ZM21.76,94.67h5.5V120H20.94V104.18l-6.83,7.94h-.96l-6.84-7.94V120H0V94.67H5.49l8.14,9.39ZM98.59,65.28,86.1,72.97V0H98.59l7.49,7H98.59ZM73.62,80.55,61.13,88.26V0H73.62l7.49,7H73.62Zm-24.98,7.7-12.48-7.7V0H48.64l7.49,7H48.64Zm60.861,13.3a3.358,3.358,0,1,0-3.363-3.382A3.354,3.354,0,0,0,109.5,101.546Zm-2.145-5.283a2.828,2.828,0,0,1,2.184-.955,2.886,2.886,0,1,1-2.184.955Zm1.268,2.223H109.7l.741,1.657h.643l-.809-1.784a1.034,1.034,0,0,0,.75-1,1.179,1.179,0,0,0-1.325-1.111h-1.648v3.9h.576Zm0-1.755H109.7c.438,0,.711.234.711.614,0,.419-.292.683-.779.683h-1Z" fill="#fff"/></svg>